<svg height="512pt" viewBox="0 0 512.00743 512" width="512pt" xmlns="http://www.w3.org/2000/svg"><path d="m510.789062 133.742188c-41.152343-78.742188-124.011718-133.73828175-201.453124-133.73828175-121.40625 0-224 122.11328175-224 266.66796875v32h-74.664063c-4.203125 0-8 2.472656-9.730469 6.292969-1.726562 3.816406-1.042968 8.320312 1.75 11.453125l170.667969 192c2.027344 2.285156 4.929687 3.585937 7.976563 3.585937 3.050781 0 5.953124-1.300781 7.980468-3.585937l170.667969-192c2.792969-3.132813 3.476563-7.613281 1.75-11.453125-1.730469-3.820313-5.527344-6.292969-9.730469-6.292969h-74.921875c.019531-1.027344.0625-2.070313.105469-3.117187.066406-2.496094.148438-5.011719.148438-7.550782 0-89.128906 47.875-181.332031 128-181.332031 29.507812 0 66.816406 20.753906 89.003906 40.042969 3.882812 3.390625 9.601562 3.519531 13.613281.316406 4.007813-3.15625 5.226563-8.765625 2.835937-13.289062zm0 0" fill="#ffc107"/><path d="m181.335938 512.003906c-3.046876 0-5.949219-1.300781-7.976563-3.585937l-170.667969-192c-2.792968-3.132813-3.476562-7.613281-1.75-11.453125 1.730469-3.820313 5.527344-6.292969 9.730469-6.292969h74.664063v-32c0-144.554687 102.59375-266.66796875 224-266.66796875 77.441406 0 160.300781 54.99609375 201.453124 133.73828175 2.367188 4.542968 1.171876 10.132812-2.859374 13.3125-4.011719 3.179687-9.726563 3.070312-13.609376-.320313-22.167968-19.308594-59.476562-40.0625-88.984374-40.0625-80.125 0-128 92.203125-128 181.332031 0 2.539063-.082032 5.054688-.148438 7.550782-.042969 1.046874-.085938 2.089843-.105469 3.117187h74.921875c4.203125 0 8 2.472656 9.730469 6.292969 1.726563 3.816406 1.042969 8.320312-1.75 11.453125l-170.667969 192c-2.027344 2.285156-4.929687 3.585937-7.980468 3.585937zm-146.921876-192 146.921876 165.289063 146.925781-165.289063h-61.589844c-5.503906 0-10.113281-4.179687-10.625-9.664062-.46875-5.097656-.363281-10.238282-.191406-15.445313.0625-2.28125.148437-4.585937.148437-6.890625 0-99.625 55.851563-202.667968 149.332032-202.667968 19.160156 0 39.339843 6.359374 57.6875 15.339843-40.640626-48.257812-98.792969-79.339843-153.6875-79.339843-109.84375 0-202.664063 112.363281-202.664063 245.335937v42.664063c0 5.890624-4.78125 10.667968-10.667969 10.667968zm0 0"/></svg>