<svg id="Layer_3" enable-background="new 0 0 64 64" height="512" viewBox="0 0 64 64" width="512" xmlns="http://www.w3.org/2000/svg"><g><g><circle cx="32" cy="32" fill="#3d98f7" r="30"/></g><g><path d="m33.036 7.036 1.929 1.929c.663.663 1.035 1.562 1.035 2.499 0 1.953 1.583 3.536 3.536 3.536.938 0 1.837.372 2.5 1.036l2.929 2.929c.663.663 1.036 1.562 1.036 2.5v1.071c0 .938.372 1.837 1.036 2.5l1.929 1.929c.663.663 1.562 1.036 2.5 1.036h2.071c.938 0 1.837-.372 2.5-1.036l.929-.929c.663-.663 1.562-1.036 2.5-1.036h1.706c-3.156-13.191-15.015-23-29.172-23v2.536c0 .937.372 1.836 1.036 2.5z" fill="#78b75b"/></g><g><path d="m13.414 24.414c-.905-.905-1.414-2.133-1.414-3.414v-1c0-1.281-.509-2.509-1.414-3.414l-2.586-2.586c-3.767 5.014-6 11.246-6 18 0 6.497 2.072 12.506 5.582 17.418l.004-.004c.905-.905 1.414-2.133 1.414-3.414s.509-2.509 1.414-3.414l1.172-1.172c.905-.905 1.414-2.133 1.414-3.414v-1c0-1.281.509-2.509 1.414-3.414l.172-.172c.905-.905 1.414-2.133 1.414-3.414v-1c0-1.281-.509-2.509-1.414-3.414z" fill="#78b75b"/></g><g><circle cx="8" cy="31" fill="#fff" r="3"/></g><g><circle cx="23" cy="12" fill="#fff" r="3"/></g><g><circle cx="28" cy="33" fill="#fff" r="3"/></g><g><circle cx="23" cy="49" fill="#fff" r="3"/></g><g><circle cx="46" cy="36" fill="#fff" r="3"/></g><g><circle cx="51" cy="18" fill="#fff" r="3"/></g><g><path d="m32 62c11.108 0 20.799-6.042 25.985-15.015l-2.217-2.217c-1.132-1.132-2.667-1.768-4.268-1.768s-3.136.636-4.268 1.768l-2.464 2.464c-1.132 1.132-2.667 1.768-4.268 1.768s-3.136.636-4.268 1.768l-.464.464c-1.132 1.132-1.768 2.667-1.768 4.268s-.636 3.136-1.768 4.268l-2.164 2.164c.64.04 1.282.068 1.932.068z" fill="#78b75b"/></g><g><path d="m32 63c-17.094 0-31-13.906-31-31 0-17.093 13.906-31 31-31s31 13.907 31 31c0 17.094-13.906 31-31 31zm0-60c-15.99 0-29 13.009-29 29 0 15.99 13.01 29 29 29s29-13.01 29-29c0-15.991-13.01-29-29-29z"/></g><g><path d="m53.535 29h-2.07c-1.211 0-2.351-.472-3.207-1.329l-1.93-1.928c-.856-.857-1.328-1.995-1.328-3.207v-1.071c0-.678-.264-1.314-.742-1.793l-2.93-2.929c-.479-.479-1.116-.743-1.793-.743-2.501 0-4.535-2.035-4.535-4.536 0-.678-.264-1.314-.742-1.793l-1.93-1.928c-.856-.857-1.328-1.995-1.328-3.207v-2.536h2v2.536c0 .678.264 1.314.742 1.793l1.93 1.928c.856.857 1.328 1.995 1.328 3.207 0 1.398 1.138 2.536 2.535 2.536 1.211 0 2.351.472 3.207 1.329l2.93 2.929c.856.856 1.328 1.994 1.328 3.206v1.071c0 .678.264 1.314.742 1.793l1.93 1.928c.479.48 1.116.744 1.793.744h2.07c.677 0 1.313-.264 1.793-.743l.93-.929c.856-.856 1.996-1.328 3.207-1.328h1.535v2h-1.535c-.677 0-1.313.264-1.793.743l-.93.929c-.856.856-1.996 1.328-3.207 1.328z"/></g><g><path d="m30.707 62.707-1.414-1.414 2.232-2.232c.952-.952 1.475-2.216 1.475-3.561 0-1.879.731-3.646 2.061-4.975l.465-.465c1.328-1.329 3.095-2.06 4.974-2.06 1.345 0 2.609-.523 3.561-1.475l2.465-2.465c1.328-1.329 3.095-2.06 4.974-2.06s3.646.731 4.975 2.061l2.232 2.232-1.414 1.414-2.232-2.232c-.952-.952-2.216-1.475-3.561-1.475s-2.609.523-3.561 1.475l-2.465 2.465c-1.328 1.329-3.095 2.06-4.974 2.06-1.345 0-2.609.523-3.561 1.475l-.465.465c-.951.951-1.474 2.215-1.474 3.56 0 1.879-.731 3.646-2.061 4.975z"/></g><g><path d="m8.207 50.207-1.414-1.414.086-.086c.713-.713 1.121-1.699 1.121-2.707 0-1.534.622-3.036 1.707-4.121l1.172-1.172c.713-.713 1.121-1.699 1.121-2.707v-1c0-1.534.622-3.036 1.707-4.121l.172-.172c.723-.723 1.121-1.685 1.121-2.707v-1c0-1.022-.398-1.984-1.121-2.707l-1.172-1.172c-1.101-1.1-1.707-2.564-1.707-4.121v-1c0-1.022-.398-1.984-1.121-2.707l-2.586-2.586 1.414-1.414 2.586 2.586c1.101 1.1 1.707 2.564 1.707 4.121v1c0 1.022.398 1.984 1.121 2.707l1.172 1.172c1.101 1.1 1.707 2.564 1.707 4.121v1c0 1.557-.606 3.021-1.707 4.121l-.172.172c-.713.713-1.121 1.699-1.121 2.707v1c0 1.534-.622 3.036-1.707 4.121l-1.172 1.172c-.713.713-1.121 1.699-1.121 2.707 0 1.534-.622 3.036-1.707 4.121z"/></g><g><path d="m8 35c-2.206 0-4-1.794-4-4s1.794-4 4-4 4 1.794 4 4-1.794 4-4 4zm0-6c-1.103 0-2 .897-2 2s.897 2 2 2 2-.897 2-2-.897-2-2-2z"/></g><g><path d="m23 16c-2.206 0-4-1.794-4-4s1.794-4 4-4 4 1.794 4 4-1.794 4-4 4zm0-6c-1.103 0-2 .897-2 2s.897 2 2 2 2-.897 2-2-.897-2-2-2z"/></g><g><path d="m28 37c-2.206 0-4-1.794-4-4s1.794-4 4-4 4 1.794 4 4-1.794 4-4 4zm0-6c-1.103 0-2 .897-2 2s.897 2 2 2 2-.897 2-2-.897-2-2-2z"/></g><g><path d="m23 53c-2.206 0-4-1.794-4-4s1.794-4 4-4 4 1.794 4 4-1.794 4-4 4zm0-6c-1.103 0-2 .897-2 2s.897 2 2 2 2-.897 2-2-.897-2-2-2z"/></g><g><path d="m46 40c-2.206 0-4-1.794-4-4s1.794-4 4-4 4 1.794 4 4-1.794 4-4 4zm0-6c-1.103 0-2 .897-2 2s.897 2 2 2 2-.897 2-2-.897-2-2-2z"/></g><g><path d="m51 22c-2.206 0-4-1.794-4-4s1.794-4 4-4 4 1.794 4 4-1.794 4-4 4zm0-6c-1.103 0-2 .897-2 2s.897 2 2 2 2-.897 2-2-.897-2-2-2z"/></g><g><path d="m6.598 20h17.804v2h-17.804z" transform="matrix(.618 -.786 .786 .618 -10.589 20.214)"/></g><g><path d="m24.5 14.851h2v15.297h-2z" transform="matrix(.981 -.196 .196 .981 -3.917 5.438)"/></g><g><path d="m19.615 40h10.77v2h-10.77z" transform="matrix(.371 -.929 .929 .371 -22.349 49.002)"/></g><g><path d="m36 28.315h1.999v12.369h-1.999z" transform="matrix(.243 -.97 .97 .243 -5.444 62.028)"/></g><g><path d="m41.675 26h12.649v1.999h-12.649z" transform="matrix(.317 -.949 .949 .317 7.195 63.986)"/></g><g><path d="m17 24.929h2v14.142h-2z" transform="matrix(.142 -.99 .99 .142 -16.224 45.293)"/></g><g><path d="m13.5 32.098h2v17.804h-2z" transform="matrix(.786 -.618 .618 .786 -22.232 17.719)"/></g><g><path d="m24.452 42.5h21.095v2h-21.095z" transform="matrix(.853 -.521 .521 .853 -17.546 24.628)"/></g><g><path d="m34 9.858h2v28.284h-2z" transform="matrix(.707 -.707 .707 .707 -6.719 31.778)"/></g><g><path d="m18.469 55h8.062v2h-8.062z" transform="matrix(.124 -.992 .992 .124 -35.858 71.38)"/></g><g><path d="m2 30h3v2h-3z"/></g><g><path d="m22 3h2v6h-2z"/></g><g><path d="m49 35h13v2h-13z"/></g><g><path d="m49.307 11.5h5.385v2.001h-5.385z" transform="matrix(.372 -.928 .928 .372 21.078 56.136)"/></g></g></svg>