<svg height="512pt" viewBox="0 0 512.01842 512" width="512pt" xmlns="http://www.w3.org/2000/svg"><path d="m507.953125 364.796875c-4.011719-3.175781-9.730469-3.027344-13.613281.320313-22.1875 19.308593-59.496094 40.066406-89.003906 40.066406-80.125 0-128-92.203125-128-181.335938 0-2.539062-.082032-5.054687-.148438-7.550781-.042969-1.046875-.085938-2.089844-.105469-3.113281h74.921875c4.203125 0 8-2.476563 9.730469-6.292969 1.726563-3.820313 1.042969-8.320313-1.75-11.457031l-170.667969-192c-4.03125-4.566406-11.925781-4.566406-15.957031 0l-170.667969 192c-2.792968 3.136718-3.476562 7.617187-1.75 11.457031 1.730469 3.816406 5.527344 6.292969 9.730469 6.292969h74.664063v32c0 144.554687 102.59375 266.664062 224 266.664062 77.441406 0 160.300781-54.996094 201.453124-133.738281 2.390626-4.523437 1.171876-10.132813-2.835937-13.3125zm0 0" fill="#4caf50"/><path d="m309.335938 511.847656c-121.40625 0-224-122.109375-224-266.664062v-32h-74.664063c-4.203125 0-8-2.476563-9.730469-6.292969-1.726562-3.820313-1.042968-8.320313 1.75-11.457031l170.667969-192c4.03125-4.566406 11.925781-4.566406 15.957031 0l170.667969 192c2.792969 3.136718 3.476563 7.617187 1.75 11.457031-1.730469 3.816406-5.527344 6.292969-9.730469 6.292969h-74.921875c.019531 1.023437.0625 2.066406.105469 3.113281.066406 2.496094.148438 5.011719.148438 7.550781 0 89.132813 47.875 181.335938 128 181.335938 29.507812 0 66.816406-20.757813 89.003906-40.042969 3.882812-3.351563 9.578125-3.5 13.613281-.320313 4.03125 3.179688 5.226563 8.765626 2.855469 13.3125-41.171875 78.71875-124.03125 133.714844-201.472656 133.714844zm-274.921876-320h61.589844c5.886719 0 10.667969 4.78125 10.667969 10.667969v42.667969c0 132.96875 92.820313 245.332031 202.664063 245.332031 54.894531 0 113.046874-31.082031 153.6875-79.339844-18.347657 8.984375-38.527344 15.339844-57.6875 15.339844-93.480469 0-149.332032-103.039063-149.332032-202.667969 0-2.300781-.085937-4.605468-.148437-6.890625-.171875-5.203125-.300781-10.34375.191406-15.445312.511719-5.480469 5.121094-9.664063 10.625-9.664063h61.589844l-146.925781-165.289062zm0 0"/></svg>