<svg id="Capa_1" enable-background="new 0 0 512.358 512.358" height="512" viewBox="0 0 512.358 512.358" width="512" xmlns="http://www.w3.org/2000/svg"><g><path d="m407.484 259.57c.061 1.875.099 3.756.099 5.646 0 2.515-.056 5.016-.166 7.504-.133 3.012 1.793 5.727 4.687 6.573l24.706 7.219c1.504-8.731 9.746-14.658 18.521-13.261 9.031 0 15.259 7.297 13.839 16.217l-4.299 27.002c-1.408 8.845-9.719 14.873-18.564 13.466-8.775-1.397-14.769-9.59-13.488-18.357l-26.317-.827c-2.94-.092-5.574 1.794-6.44 4.605-4.341 14.097-10.464 27.411-18.107 39.682-1.614 2.592-1.232 5.95.938 8.098l15.196 15.049c5.72-3.872 13.522-3.696 19.095.946 6.754 5.625 7.669 15.659 2.044 22.413l-7.032 8.444c-5.526 6.635-15.4 8.03-22.231 2.748-5.496-4.25-7.404-11.309-5.414-17.484l-18.746-10.925c-2.57-1.498-5.818-1.062-7.919 1.044-18.349 18.393-40.882 32.607-66.053 41.094-2.857.963-4.693 3.741-4.437 6.744l2.187 25.609c8.961-1.806 17.729 4.154 19.213 13.319 1.391 8.593-4.537 16.69-13.048 18.518l-27.011 5.803c-8.919 1.916-16.216-3.98-16.216-13.102-1.866-8.688 3.609-17.236 12.247-19.207l-8.744-24.871c-.975-2.774-3.681-4.548-6.614-4.343-3.954.277-7.944.419-11.968.419-41.634 0-79.768-14.963-109.337-39.794-2.111-1.772-5.107-2.022-7.485-.629l-22.627 13.251 3.164 3.416c8.529 9.208 8.633 23.682-.266 32.533-9.343 9.292-24.443 8.917-33.32-.668l-23.838-25.736c-8.529-9.208-8.633-23.683.266-32.533 9.343-9.292 24.443-8.917 33.32.668l3.541 3.823 15.35-22.136c1.532-2.209 1.553-5.13.051-7.359-18.283-27.124-28.956-59.802-28.956-94.974 0-6.808.404-13.52 1.184-20.118.353-2.993-1.365-5.84-4.187-6.898l-24.091-9.031c-2.148 8.595-10.808 13.894-19.455 11.849-9.165 0-14.938-7.297-12.829-16.217l6.421-27.152c2.003-8.471 10.221-14.231 18.783-12.663 9.133 1.672 14.911 10.561 12.921 19.483l26.18 2.78c2.929.311 5.694-1.381 6.769-4.124 4.914-12.531 11.268-24.338 18.864-35.215 1.724-2.468 1.539-5.791-.451-8.05l-17.001-19.31c-6.131 6.78-16.724 7.201-23.367.714-6.228-6.082-6.276-16.117-.52-22.647l16.209-18.39c5.922-6.719 16.169-7.364 22.888-1.442 6.666 5.875 7.345 16.004 1.572 22.725l21.819 14.8c2.435 1.651 5.668 1.468 7.904-.444 25.133-21.495 56.607-35.786 91.227-39.694 2.991-.338 5.363-2.674 5.742-5.66l3.245-25.529c-9.14-.116-16.46-7.785-15.986-17.057.445-8.694 7.941-15.365 16.646-15.365h24.061c8.705 0 16.202 6.671 16.646 15.365.474 9.272-6.846 16.941-15.986 17.057l3.323 26.146c.372 2.925 2.659 5.228 5.579 5.639 4.734.668 9.398 1.552 13.999 2.601l24.887 7.114c36.197 10.347 67.246 33.8 87.094 65.79 16.18 26.07 23.245 56.775 20.089 87.296z" fill="#f79595"/><g><path d="m130.876 263.762c0-82.421 51.411-152.826 123.91-180.92l-2.271-17.861c9.14-.116 16.46-7.785 15.986-17.057-.445-8.694-7.941-15.365-16.646-15.365h-24.062c-8.705 0-16.202 6.671-16.646 15.365-.474 9.272 6.846 16.941 15.986 17.057l-3.245 25.529c-.38 2.986-2.751 5.323-5.742 5.66-34.62 3.908-66.093 18.199-91.227 39.694-2.236 1.912-5.469 2.096-7.904.444l-21.819-14.8c5.773-6.72 5.094-16.849-1.572-22.725-6.719-5.922-16.966-5.276-22.888 1.442l-16.209 18.39c-5.756 6.53-5.708 16.565.52 22.647 6.642 6.487 17.236 6.066 23.367-.714l17.001 19.31c1.989 2.259 2.174 5.582.451 8.05-7.596 10.877-13.95 22.684-18.864 35.215-1.075 2.742-3.84 4.435-6.77 4.124l-26.18-2.78c1.99-8.922-3.788-17.81-12.921-19.483-8.563-1.568-16.78 4.192-18.783 12.663l-6.421 27.152c-2.109 8.919 3.664 16.217 12.829 16.217 8.647 2.045 17.307-3.254 19.455-11.849l24.091 9.031c2.822 1.058 4.54 3.906 4.187 6.898-.779 6.598-1.184 13.311-1.184 20.118 0 35.172 10.674 67.85 28.957 94.974 1.502 2.229 1.481 5.15-.051 7.359l-15.35 22.136-3.541-3.823c-8.877-9.584-23.977-9.96-33.32-.668-8.899 8.851-8.795 23.325-.266 32.533l23.838 25.737c8.877 9.584 23.977 9.96 33.32.668 8.899-8.851 8.795-23.325.266-32.533l-3.164-3.416 22.627-13.251c2.378-1.393 5.375-1.143 7.485.629 28.819 24.201 65.792 39.025 106.193 39.762-61.496-32.529-103.423-97.147-103.423-171.559z" fill="#f37c7c"/></g><g fill="#f37c7c"><circle cx="211.126" cy="354.445" r="37.853"/><circle cx="316.865" cy="304.479" r="18.999"/></g><path d="m387.398 172.271c-19.848-31.99-50.897-55.444-87.094-65.79l-14.892-4.257-44.631 71.934c-9.584 15.449-10.029 34.156-1.189 50.043 8.839 15.886 24.971 25.37 43.15 25.37h125.404c.834-27.173-6.338-54.075-20.748-77.3z" fill="#f37c7c"/><path d="m475.406 229.571h-192.664c-23.033 0-37.108-25.298-24.965-44.869l96.332-155.264c11.491-18.521 38.44-18.521 49.931 0l96.332 155.264c12.142 19.571-1.934 44.869-24.966 44.869z" fill="#cbbfbb"/><path d="m288.056 192.806 87.253-140.635c1.732-2.792 5.795-2.792 7.528 0l87.257 140.635c1.831 2.951-.291 6.765-3.764 6.765h-174.51c-3.472-.001-5.594-3.815-3.764-6.765z" fill="#fbe98c"/><circle cx="189.319" cy="223.671" fill="#f9c6c6" r="63.272"/></g><g><g><path d="m248.115 239.338c-3.854-1.517-8.209.373-9.728 4.228-4.625 11.735-13.271 21.565-24.345 27.682-3.626 2.003-4.941 6.565-2.939 10.191 1.368 2.477 3.93 3.875 6.572 3.875 1.226 0 2.47-.301 3.619-.936 14.121-7.799 25.147-20.34 31.048-35.313 1.519-3.853-.373-8.209-4.227-9.727z"/><path d="m187.855 169.361c12.985 0 25.561 4.671 35.41 13.152 3.138 2.7 7.874 2.35 10.577-.79 2.702-3.139 2.35-7.874-.79-10.577-12.569-10.824-28.621-16.785-45.197-16.785-38.217 0-69.309 31.092-69.309 69.31 0 18.092 6.931 35.21 19.516 48.201 12.553 12.957 29.382 20.433 47.387 21.05.088.003.175.004.262.004 4.023 0 7.352-3.191 7.49-7.243.143-4.14-3.099-7.61-7.238-7.752-29.393-1.007-52.416-24.841-52.416-54.26 0-29.946 24.362-54.31 54.308-54.31z"/><path d="m211.126 399.798c25.008 0 45.353-20.345 45.353-45.353s-20.345-45.353-45.353-45.353-45.353 20.345-45.353 45.353 20.345 45.353 45.353 45.353zm0-75.705c16.736 0 30.353 13.616 30.353 30.353s-13.616 30.353-30.353 30.353-30.353-13.616-30.353-30.353 13.617-30.353 30.353-30.353z"/><path d="m343.364 304.48c0-14.611-11.888-26.499-26.499-26.499s-26.499 11.888-26.499 26.499 11.888 26.499 26.499 26.499 26.499-11.888 26.499-26.499zm-37.998 0c0-6.341 5.158-11.499 11.499-11.499s11.499 5.158 11.499 11.499-5.158 11.499-11.499 11.499-11.499-5.159-11.499-11.499z"/><path d="m506.744 180.747-96.332-155.264c-6.774-10.918-18.489-17.438-31.338-17.438-12.85 0-24.564 6.52-31.339 17.438l-23.657 38.129c-2.184 3.52-1.101 8.144 2.419 10.327s8.144 1.1 10.327-2.419l23.657-38.129c4.019-6.478 10.97-10.346 18.593-10.346 7.622 0 14.573 3.868 18.592 10.346l96.332 155.264c4.247 6.846 4.444 15.135.527 22.174s-11.064 11.241-19.119 11.241h-192.664c-8.056 0-15.203-4.202-19.12-11.241-3.916-7.039-3.719-15.328.528-22.174l55.367-89.24c2.184-3.52 1.101-8.144-2.419-10.327-3.521-2.184-8.144-1.101-10.327 2.419l-55.367 89.24c-7.158 11.538-7.491 25.51-.89 37.375 6.602 11.864 18.649 18.948 32.228 18.948h192.664c13.577 0 25.625-7.083 32.227-18.948 6.601-11.864 6.269-25.837-.889-37.375z"/><path d="m436.937 199.57c0 4.143 3.357 7.5 7.5 7.5h29.854c2.722 0 5.23-1.475 6.554-3.854s1.254-5.288-.181-7.601l-95.218-153.465c-1.368-2.205-3.778-3.546-6.373-3.546s-5.005 1.341-6.373 3.546l-95.214 153.466c-1.435 2.313-1.504 5.222-.181 7.601s3.832 3.854 6.554 3.854h128.615c4.143 0 7.5-3.357 7.5-7.5s-3.357-7.5-7.5-7.5h-115.135l81.734-131.74 81.738 131.74h-16.374c-4.142-.001-7.5 3.357-7.5 7.499z"/><path d="m379.075 156.301c-4.143 0-7.5 3.357-7.5 7.5v8.113c0 4.143 3.357 7.5 7.5 7.5s7.5-3.357 7.5-7.5v-8.113c0-4.143-3.357-7.5-7.5-7.5z"/><path d="m386.575 95.903c0-4.143-3.357-7.5-7.5-7.5s-7.5 3.357-7.5 7.5v40.141c0 4.143 3.357 7.5 7.5 7.5s7.5-3.357 7.5-7.5z"/><path d="m455.926 265.758c-9.682-1.301-18.939 3.563-23.643 11.617l-17.342-5.066c.095-2.372.143-4.754.143-7.093 0-1.805-.034-3.73-.104-5.888-.134-4.139-3.574-7.39-7.738-7.254-4.14.134-7.388 3.599-7.254 7.738.064 1.994.096 3.762.096 5.403 0 2.364-.054 4.778-.159 7.175-.285 6.485 3.858 12.284 10.077 14.102l24.705 7.219c2.051.598 4.261.295 6.074-.837s3.058-2.982 3.421-5.089c.805-4.676 5.263-7.878 9.951-7.128.39.062.784.093 1.179.093 2.137 0 3.96.757 5.134 2.132 1.173 1.375 1.635 3.295 1.299 5.406l-4.3 27.003c-.365 2.299-1.604 4.318-3.489 5.685-1.884 1.367-4.189 1.92-6.488 1.552-4.682-.744-7.932-5.17-7.246-9.864.31-2.115-.299-4.262-1.671-5.9s-3.378-2.613-5.515-2.681l-26.316-.827c-6.313-.217-11.987 3.869-13.844 9.894-4.098 13.309-9.92 26.068-17.305 37.925-3.49 5.604-2.656 12.756 2.026 17.393l15.196 15.049c2.544 2.521 6.517 2.889 9.481.882 3.083-2.089 7.232-1.883 10.091.497 3.565 2.97 4.051 8.286 1.081 11.851l-7.31 8.778c-2.97 3.564-8.283 4.05-11.851 1.08-2.649-2.206-3.676-5.758-2.615-9.049 1.082-3.354-.317-7.007-3.361-8.781l-18.748-10.927c-5.507-3.208-12.499-2.29-17.003 2.229-17.697 17.739-39.531 31.323-63.14 39.283-6.153 2.074-10.065 8.033-9.514 14.49l2.188 25.609c.182 2.129 1.264 4.08 2.974 5.362 1.711 1.281 3.887 1.773 5.981 1.352 4.665-.947 9.147 1.949 10.211 6.576.498 2.166.078 4.45-1.185 6.435-1.344 2.112-3.49 3.619-5.889 4.134l-27.041 5.811c-2.056.442-3.89.118-5.165-.912-1.274-1.03-1.977-2.755-1.977-4.857 0-.529-.056-1.058-.167-1.576-.996-4.634 1.957-9.263 6.582-10.319 2.084-.476 3.865-1.817 4.897-3.688 1.033-1.871 1.218-4.094.509-6.11l-8.743-24.871c-2.088-5.936-7.92-9.781-14.213-9.336-3.803.266-7.653.4-11.444.4-38.188 0-75.306-13.509-104.515-38.037-4.525-3.801-10.993-4.347-16.099-1.358l-22.627 13.251c-1.962 1.148-3.296 3.125-3.629 5.373-.333 2.249.372 4.527 1.916 6.195l3.542 3.823c5.862 6.329 5.482 16.249-.848 22.112-6.33 5.861-16.249 5.482-22.112-.848l-24.215-26.144c-5.862-6.329-5.482-16.249.847-22.112 3.066-2.84 7.061-4.321 11.231-4.156 4.177.16 8.041 1.937 10.88 5.003l3.541 3.823c1.544 1.668 3.761 2.551 6.03 2.385 2.268-.16 4.341-1.34 5.636-3.208l15.35-22.135c3.318-4.785 3.361-10.996.107-15.826-6.787-10.069-12.375-20.775-16.708-31.939-.031-.083-.058-.166-.091-.248-7.165-18.546-10.876-38.349-10.876-58.595 0-6.407.381-12.88 1.132-19.238.761-6.44-2.94-12.526-9.002-14.801l-24.091-9.031c-2.001-.75-4.228-.61-6.12.383s-3.271 2.747-3.789 4.821c-1.149 4.604-5.844 7.464-10.452 6.369-.566-.134-1.146-.201-1.727-.201-2.092 0-3.783-.681-4.761-1.917s-1.251-3.038-.77-5.074l6.428-27.182c.564-2.388 2.116-4.504 4.256-5.804 2.009-1.22 4.299-1.595 6.456-1.051 4.605 1.159 7.401 5.703 6.366 10.345-.465 2.086-.019 4.271 1.229 6.008 1.246 1.735 3.175 2.857 5.3 3.083l26.182 2.78c6.257.676 12.24-2.973 14.542-8.844 4.65-11.858 10.712-23.178 18.019-33.643 3.721-5.329 3.327-12.45-.958-17.316l-17.002-19.311c-1.412-1.604-3.441-2.529-5.579-2.544-.017 0-.033 0-.05 0-2.119 0-4.141.896-5.563 2.47-3.188 3.525-8.514 3.872-12.122.782-1.688-1.445-2.708-3.532-2.873-5.877-.175-2.497.655-4.985 2.278-6.826l16.229-18.413c3.178-3.606 8.694-3.954 12.303-.774 3.556 3.134 3.934 8.611.842 12.211-1.393 1.621-2.027 3.759-1.745 5.878.283 2.118 1.456 4.016 3.225 5.216l21.819 14.8c5.211 3.534 12.198 3.146 16.989-.951 24.757-21.173 54.901-34.292 87.177-37.939 6.457-.731 11.538-5.735 12.357-12.17l3.245-25.528c.27-2.12-.379-4.254-1.781-5.867-1.402-1.612-3.426-2.55-5.563-2.577-4.744-.061-8.604-3.967-8.604-8.707 0-4.807 3.91-8.717 8.716-8.717h24.966c4.806 0 8.716 3.91 8.716 8.717 0 4.74-3.859 8.646-8.604 8.707-2.137.027-4.161.965-5.563 2.577-1.402 1.613-2.051 3.747-1.781 5.867l3.323 26.146c.796 6.254 5.719 11.237 11.974 12.12 4.296.605 8.796 1.441 13.375 2.487 4.043.92 8.059-1.605 8.98-5.644.922-4.039-1.604-8.06-5.643-8.981-4.736-1.08-9.409-1.958-13.899-2.612l-2.358-18.555c8.869-3.447 15.196-12.096 15.196-22.113 0-13.077-10.639-23.717-23.716-23.717h-24.966c-13.077 0-23.716 10.64-23.716 23.717 0 10.018 6.327 18.666 15.196 22.113l-2.277 17.917c-17.719 2.077-34.842 6.775-50.918 13.885l-11.252-20.936c-1.962-3.648-6.508-5.016-10.157-3.056-3.648 1.961-5.017 6.509-3.056 10.157l11.007 20.48c-10.438 5.724-20.338 12.526-29.559 20.347l-15.485-10.504c3.279-8.933.975-19.398-6.541-26.022-9.81-8.646-24.826-7.7-33.474 2.109l-16.229 18.413c-4.261 4.833-6.443 11.319-5.988 17.796.448 6.383 3.317 12.144 8.08 16.221 7.623 6.526 18.054 7.43 26.404 3.026l11.903 13.52c-7.654 11.063-14.042 22.988-18.995 35.47l-18.53-1.968c-1.23-9.357-7.997-17.35-17.728-19.8-6.08-1.531-12.439-.544-17.906 2.778-5.55 3.371-9.583 8.901-11.065 15.172l-6.428 27.181c-1.536 6.496-.223 12.996 3.604 17.833 3.658 4.625 9.326 7.363 15.652 7.595 9.466 1.875 18.926-2.275 24.163-9.886l16.908 6.338c-.764 6.703-1.15 13.516-1.15 20.262 0 3.413.099 6.813.291 10.2l-19.344 2.633c-4.104.559-6.979 4.339-6.42 8.443.512 3.761 3.729 6.489 7.422 6.489.337 0 .679-.022 1.021-.069l18.802-2.559c1.582 11.168 4.212 22.118 7.864 32.725l-10.675 5.621c-3.665 1.931-5.072 6.466-3.143 10.131 1.344 2.551 3.948 4.008 6.644 4.008 1.178 0 2.373-.278 3.487-.865l9.211-4.85c4.102 9.252 9.007 18.184 14.701 26.701l-9.805 14.14c-5.157-4.28-11.542-6.734-18.352-6.995-8.182-.319-15.992 2.577-21.999 8.141-12.397 11.484-13.141 30.913-1.657 43.31l24.215 26.144c11.484 12.399 30.915 13.142 43.31 1.658 11.387-10.547 12.943-27.796 4.225-40.144l14.214-8.324c11.457 9.544 24.023 17.529 37.345 23.856l-7.055 16.757c-1.607 3.817.185 8.216 4.002 9.822.95.4 1.937.59 2.907.59 2.927 0 5.708-1.725 6.915-4.592l7.036-16.712c9.296 3.49 18.884 6.2 28.659 8.1v5.702c0 4.143 3.357 7.5 7.5 7.5s7.5-3.357 7.5-7.5v-3.444c10.09 1.082 20.316 1.313 30.571.639l6.206 17.651c-7.736 5.094-12.083 14.501-10.366 24.031.211 6.311 2.931 12.009 7.536 15.729 3.593 2.903 8.122 4.432 12.892 4.432 1.599 0 3.225-.172 4.851-.521l27.041-5.811c6.298-1.353 11.909-5.271 15.395-10.749 3.435-5.398 4.553-11.736 3.147-17.847-2.249-9.779-10.101-16.709-19.432-18.131l-1.53-17.923c11.611-3.97 22.813-9.199 33.386-15.511l9.259 12.632c1.469 2.005 3.746 3.067 6.055 3.067 1.539 0 3.092-.473 4.428-1.452 3.341-2.448 4.064-7.142 1.615-10.482l-8.793-11.996c7.734-5.543 15.041-11.692 21.794-18.405l13.614 7.935c-.332 7.195 2.676 14.232 8.413 19.01 9.921 8.264 24.714 6.912 32.975-3.007l7.311-8.778c8.263-9.921 6.913-24.713-3.008-32.976-6.288-5.237-14.818-6.694-22.355-4.214l-10.905-10.799c7.749-12.561 13.897-26.039 18.287-40.085l18.668.587c2.01 9.301 9.557 16.909 19.45 18.485 6.26.993 12.525-.505 17.653-4.225s8.5-9.214 9.495-15.47l4.3-27.003c1.022-6.422-.692-12.801-4.703-17.5-3.887-4.56-9.673-7.233-15.948-7.391z"/></g></g></svg>