<svg id="Capa_1" enable-background="new 0 0 511.448 511.448" viewBox="0 0 511.448 511.448" xmlns="http://www.w3.org/2000/svg"><g><path d="m436.795 218.199c0 120.51-97.693 218.203-218.203 218.203s-218.204-97.693-218.204-218.203c0-4.527.131-9.005.391-13.431.133-2.275 2.001-3.118 2.201-5.365 7.76-87.039 63.903-156.583 145.181-183.007 21.262-6.912 40.958-12.837 64.525-12.837 15.064 0 35.676-2.038 49.881.869 99.432 20.347 174.228 108.324 174.228 213.771z" fill="#c4e2ff"/><path d="m436.8 218.199c0 120.513-97.698 218.2-218.211 218.2-38.482 0-74.636-9.96-106.02-27.44 26.801 11.753 56.404 18.273 87.542 18.273 120.513 0 218.2-97.687 218.2-218.2 0-82.031-45.259-153.494-112.18-190.76 76.933 33.722 130.669 110.552 130.669 199.927z" fill="#b3dafe"/><path d="m275.257 212.855c-3.363 12.408-9.322 29.331-20.069 37.35-15.419 11.505-33.469 9.824-51.256 12.313-19.232 2.691-37.867 9.726-57.473 9.551-22.093-.198-44.565-.962-65.307-9.419-16.149-6.585-31.527-15.089-45.524-25.506-12.968-9.651-25.843-19.272-34.825-32.374 6.931-114.252 101.786-204.77 217.787-204.77 15.965 0 31.519 1.71 46.506 4.965-1.473 11.32-2.946 22.65-4.419 33.97-.896 6.86-2.07 14.297-7.087 19.055-3.543 3.348-8.456 4.8-13.225 5.778-8.683 1.782-17.593 2.4-26.431 1.823-8.158-.536-17.706-1.566-23.165 4.501-3.904 4.357-4.099 10.784-6.046 16.295-3.43 9.692-12.227 16.336-20.755 22.084-11.794 7.962-23.958 15.368-36.452 22.197-4.027 2.194-8.22 4.45-10.949 8.137-6.458 8.693-2.07 21.394 4.934 29.654 12.721 15.028 33.609 22.66 53.014 19.375 19.394-3.283 33.443-16.521 48.459-28.055 11.155-8.568 24.889-24.553 40.711-17.566 8.926 3.942 12.163 14.824 13.58 24.478 2.208 15.046 2.062 31.144-2.008 46.164z" fill="#91deb6"/><path d="m99.23 164.844c-7.004-8.261-11.392-20.961-4.934-29.654 2.73-3.688 6.922-5.943 10.949-8.137 12.494-6.829 24.659-14.235 36.453-22.197 4.714-3.177 9.26-6.352 13.924-9.487 4.27-2.87 7.6-7.024 10.089-11.485 3.52-6.308 5.554-13.313 7.993-20.113 3.406-9.499 10.179-14.832 20.308-14.369 8.104.37 16.208.741 24.312 1.111 3.583.164 7.241.319 10.686-.68 6.717-1.948 8.58-8.261 9.397-14.514 1.473-11.32 2.946-22.65 4.419-33.97-.072-.021-.144-.031-.216-.041 7.622.834 15.131 2.06 22.485 3.657-1.473 11.32-2.946 22.65-4.419 33.97-.896 6.86-2.07 14.297-7.087 19.055-3.543 3.348-8.456 4.8-13.226 5.778-8.683 1.782-17.593 2.4-26.43 1.823-8.158-.536-17.706-1.566-23.165 4.501-3.904 4.357-4.099 10.784-6.046 16.295-3.43 9.693-12.226 16.336-20.755 22.084-11.794 7.962-23.958 15.368-36.453 22.197-4.027 2.194-8.22 4.45-10.949 8.137-6.458 8.693-2.07 21.394 4.934 29.654 6.304 7.457 14.626 13.092 23.773 16.47-17.284.66-34.835-6.839-46.042-20.085z" fill="#6ed5a1"/><path d="m275.261 212.853c-3.368 12.412-9.322 29.335-20.075 37.349-15.419 11.505-33.465 9.826-51.254 12.319-19.231 2.688-37.864 9.723-57.475 9.548-17.068-.154-34.351-.649-50.883-4.759 9.497.865 19.086 1.051 28.614 1.143 19.601.175 38.234-6.86 57.465-9.559 17.789-2.482 35.845-.803 51.264-12.309 10.743-8.024 16.707-24.947 20.065-37.349 4.069-15.018 4.213-31.117 2.009-46.166-1.081-7.375-3.234-15.471-8.168-20.631 5.315-2.235 10.939-2.843 16.862-.227 8.93 3.945 12.165 14.822 13.576 24.473 2.213 15.051 2.069 31.151-2 46.168z" fill="#6ed5a1"/><path d="m266.384 341.717c-5.207 12.049-14.643 23.822-23.055 29.092-9.421 5.902-21.07 6.933-32.185 6.669-8.641-.205-17.266-1.097-25.767-2.663-5.026-.926-10.308-2.249-13.868-5.915-3.528-3.633-4.725-8.978-4.705-14.043.144-35.614 36.121-38.295 62.788-45.256 15.654-4.086 37.951-10.278 40.629 12.624.684 5.845-.907 12.712-3.837 19.492z" fill="#91deb6"/><path d="m266.382 341.72c-5.202 12.051-14.637 23.824-23.052 29.088-9.425 5.902-21.074 6.932-32.188 6.675-7.705-.185-15.399-.917-23.001-2.184 10.692.051 21.682-1.277 30.695-6.932 8.693-5.449 18.448-17.613 23.835-30.066 3.028-7.004 4.666-14.101 3.966-20.147-.608-5.16-2.173-8.889-4.439-11.526 12.989-2.39 26.018-1.566 28.027 15.595.679 5.849-.907 12.719-3.843 19.497z" fill="#6ed5a1"/><g><path d="m71.075 193.893h-17.426c-4.142 0-7.5-3.358-7.5-7.5s3.358-7.5 7.5-7.5h17.426c4.142 0 7.5 3.358 7.5 7.5s-3.358 7.5-7.5 7.5z" fill="#46cc8d"/></g><g><path d="m105.766 228.585h-17.425c-4.142 0-7.5-3.358-7.5-7.5s3.358-7.5 7.5-7.5h17.426c4.142 0 7.5 3.358 7.5 7.5s-3.359 7.5-7.501 7.5z" fill="#46cc8d"/></g><g><path d="m318.825 89.048h-17.427c-4.143 0-7.5-3.358-7.5-7.5s3.357-7.5 7.5-7.5h17.427c4.143 0 7.5 3.358 7.5 7.5s-3.357 7.5-7.5 7.5z" fill="#8ac9fe"/></g><g><path d="m358.07 121.427h-17.426c-4.143 0-7.5-3.358-7.5-7.5s3.357-7.5 7.5-7.5h17.426c4.143 0 7.5 3.358 7.5 7.5s-3.358 7.5-7.5 7.5z" fill="#8ac9fe"/></g><g><path d="m330.874 183.1h-17.426c-4.143 0-7.5-3.358-7.5-7.5s3.357-7.5 7.5-7.5h17.426c4.143 0 7.5 3.358 7.5 7.5s-3.357 7.5-7.5 7.5z" fill="#8ac9fe"/></g><g><path d="m123.192 341.909h-17.426c-4.142 0-7.5-3.358-7.5-7.5s3.358-7.5 7.5-7.5h17.426c4.142 0 7.5 3.358 7.5 7.5s-3.358 7.5-7.5 7.5z" fill="#8ac9fe"/></g><g><g><path d="m491.096 511.446c-3.446 0-6.934-.893-10.117-2.771l-22.324-13.176c-18.581-11.033-35.88-23.077-51.821-36.067-15.933 12.984-33.219 25.021-51.779 36.04l-22.369 13.202c-9.484 5.598-21.71 2.447-27.309-7.037-5.598-9.485-2.447-21.711 7.037-27.309l22.324-13.176c15.009-8.911 29.075-18.536 42.153-28.834-10.698-10.782-20.592-22.088-29.649-33.886-12.241-15.947-21.177-29.481-28.122-42.593-10.085-19.04-15.434-36.274-16.355-52.689-1.576-28.128 9.065-55.719 29.195-75.698 9.732-9.66 21.615-17.388 34.364-22.349 22.735-8.849 49.534-9.789 73.525-2.579 13.197 3.966 25.733 10.804 36.252 19.773 21.655 18.465 34.389 45.2 34.935 73.35.048 2.48.002 5.004-.138 7.501-2.025 36.11-26.353 71.675-44.477 95.284-9.056 11.798-18.951 23.103-29.647 33.885 13.086 10.303 27.168 19.938 42.196 28.861l22.279 13.149c9.484 5.598 12.635 17.824 7.037 27.309-3.717 6.303-10.365 9.809-17.19 9.81zm-84.342-273.829c-9.043 0-18.02 1.561-25.964 4.653-7.688 2.992-14.857 7.656-20.734 13.49-12.041 11.951-18.409 28.411-17.47 45.159 1.407 25.092 21.387 53.811 36.293 73.23 8.483 11.051 17.813 21.631 27.954 31.711 10.139-10.078 19.471-20.66 27.953-31.711 14.906-19.419 34.886-48.137 36.293-73.23.084-1.498.112-3.011.083-4.495-.321-16.507-8.147-32.872-20.937-43.778-6.349-5.413-13.906-9.537-21.854-11.926-6.899-2.074-14.28-3.103-21.617-3.103z" fill="#fd8087"/></g><g><path d="m391.352 445.916c-15.937 12.986-32.147 24.125-50.703 35.147l-22.367 13.201c-4.729 2.785-10.133 3.41-15.057 2.159.449 1.788 1.163 3.547 2.15 5.218 5.599 9.478 17.833 12.634 27.311 7.035l22.367-13.201c18.565-11.022 35.833-23.046 51.771-36.032-5.601-4.103-10.333-8.984-15.472-13.527zm119.688-150.263c-.547-28.151-13.279-54.885-34.942-73.353-.557-.479-1.124-.948-1.7-1.417 13.866 17.041 21.8 38.264 22.23 60.357.049 2.482 0 5.003-.137 7.504-2.023 36.105-26.353 71.672-44.479 95.28-9.058 11.794-20.266 24.301-30.965 35.079.997.782 1.886 1.691 2.824 2.521 2.912 2.58 5.892 5.14 8.902 7.612 1.309 1.065 2.521 2.15 4.006 3.078 10.69-10.778 20.588-22.083 29.646-33.877 18.126-23.617 42.446-59.175 44.479-95.29.136-2.491.185-5.022.136-7.494z" fill="#fe646f"/></g><path d="m467.99 277.752-.025 1.002c-3.453-10.004-9.597-19.162-17.739-26.111-6.35-5.409-13.905-9.537-21.851-11.923-6.905-2.077-14.283-3.105-21.624-3.105-9.038 0-18.02 1.565-25.96 4.658-7.688 2.992-14.858 7.656-20.734 13.488-6.589 6.539-11.485 14.434-14.408 22.987-.013-36.45 11.258-60.068 21.357-73.903 22.589-8.609 49.092-9.461 72.843-2.323 2.291.688 4.57 1.464 6.817 2.329 10.093 13.841 21.337 36.458 21.324 72.901z" fill="#fe646f"/><g><path d="m406.833 459.436c-4.299 3.502-8.685 6.928-13.18 10.289-.644-.491-1.364-1.047-2.106-1.669-10.704-8.98-26.557-24.408-27.233-25.062l-.164-.164-.534-.546c4.517-3.23 8.925-6.535 13.235-9.929 3.819 3.677 27.801 25.16 28.183 25.466z" fill="#fe646f"/></g><g><path d="m448.109 420.364c-3.666 4.048-7.452 8.041-11.336 11.958-11.195-8.532-28.357-25.029-29.885-26.513 3.895-3.873 7.659-7.812 11.303-11.838l.055.054c1.255 1.212 19.792 19.04 29.863 26.339z" fill="#fe646f"/></g></g></g></svg>
